<mxfile host="app.diagrams.net" agent="Mozilla/5.0 (Windows NT 10.0; Win64; x64) AppleWebKit/537.36 (KHTML, like Gecko) Chrome/140.0.0.0 Safari/537.36" version="28.2.1">
  <diagram name="Page-1" id="-RDG8yDEUx2NI9PiROLJ">
    <mxGraphModel grid="1" page="1" gridSize="10" guides="1" tooltips="1" connect="1" arrows="1" fold="1" pageScale="1" pageWidth="850" pageHeight="1100" math="0" shadow="0">
      <root>
        <mxCell id="0" />
        <mxCell id="1" parent="0" />
        <mxCell id="UKTYv-2w7XkKMf8pGrn_-1" value="load StringPool&lt;div&gt;class&lt;/div&gt;&lt;div&gt;metadata&lt;/div&gt;" style="ellipse;whiteSpace=wrap;html=1;fillColor=#e1d5e7;strokeColor=#9673a6;" vertex="1" parent="1">
          <mxGeometry x="640" y="120" width="115" height="60" as="geometry" />
        </mxCell>
        <mxCell id="UKTYv-2w7XkKMf8pGrn_-2" value="STRING CONSTANT POOL (SCP)" style="swimlane;whiteSpace=wrap;html=1;" vertex="1" parent="1">
          <mxGeometry x="300" y="90" width="300" height="230" as="geometry" />
        </mxCell>
        <mxCell id="UKTYv-2w7XkKMf8pGrn_-3" value="Klass Ptr 1" style="swimlane;whiteSpace=wrap;html=1;fillColor=#f8cecc;strokeColor=#b85450;" vertex="1" parent="UKTYv-2w7XkKMf8pGrn_-2">
          <mxGeometry x="40" y="40" width="100" height="50" as="geometry" />
        </mxCell>
        <mxCell id="UKTYv-2w7XkKMf8pGrn_-4" value="&quot;I am in pool&quot;" style="text;html=1;align=center;verticalAlign=middle;resizable=0;points=[];autosize=1;strokeColor=none;fillColor=none;" vertex="1" parent="UKTYv-2w7XkKMf8pGrn_-3">
          <mxGeometry x="5" y="20" width="90" height="30" as="geometry" />
        </mxCell>
        <mxCell id="UKTYv-2w7XkKMf8pGrn_-5" style="edgeStyle=orthogonalEdgeStyle;rounded=0;orthogonalLoop=1;jettySize=auto;html=1;exitX=0.5;exitY=0;exitDx=0;exitDy=0;entryX=0.75;entryY=0;entryDx=0;entryDy=0;" edge="1" parent="UKTYv-2w7XkKMf8pGrn_-2" source="UKTYv-2w7XkKMf8pGrn_-3" target="UKTYv-2w7XkKMf8pGrn_-3">
          <mxGeometry relative="1" as="geometry" />
        </mxCell>
        <mxCell id="UKTYv-2w7XkKMf8pGrn_-6" value="Klass Ptr 1" style="swimlane;whiteSpace=wrap;html=1;fillColor=#f8cecc;strokeColor=#b85450;" vertex="1" parent="UKTYv-2w7XkKMf8pGrn_-2">
          <mxGeometry x="135" y="130" width="100" height="50" as="geometry" />
        </mxCell>
        <mxCell id="UKTYv-2w7XkKMf8pGrn_-7" value="&quot;Hello&quot;" style="text;html=1;align=center;verticalAlign=middle;resizable=0;points=[];autosize=1;strokeColor=none;fillColor=none;" vertex="1" parent="UKTYv-2w7XkKMf8pGrn_-6">
          <mxGeometry x="20" y="20" width="60" height="30" as="geometry" />
        </mxCell>
        <mxCell id="UKTYv-2w7XkKMf8pGrn_-8" value="&lt;font style=&quot;font-size: 10px;&quot;&gt;Create a literal in SCP as it does&#39;nt exist&lt;/font&gt;" style="text;html=1;align=center;verticalAlign=middle;whiteSpace=wrap;rounded=0;" vertex="1" parent="UKTYv-2w7XkKMf8pGrn_-2">
          <mxGeometry x="160" y="100" width="110" height="30" as="geometry" />
        </mxCell>
        <mxCell id="UKTYv-2w7XkKMf8pGrn_-9" value="Object References" style="swimlane;whiteSpace=wrap;html=1;" vertex="1" parent="1">
          <mxGeometry x="50" y="90" width="220" height="230" as="geometry" />
        </mxCell>
        <mxCell id="UKTYv-2w7XkKMf8pGrn_-10" value="" style="swimlane;startSize=0;fillColor=#fff2cc;strokeColor=#d6b656;" vertex="1" parent="UKTYv-2w7XkKMf8pGrn_-9">
          <mxGeometry x="62.5" y="50" width="85" height="40" as="geometry" />
        </mxCell>
        <mxCell id="UKTYv-2w7XkKMf8pGrn_-11" value="poolStr" style="text;html=1;align=center;verticalAlign=middle;resizable=0;points=[];autosize=1;strokeColor=none;fillColor=none;" vertex="1" parent="UKTYv-2w7XkKMf8pGrn_-10">
          <mxGeometry x="15" y="5" width="60" height="30" as="geometry" />
        </mxCell>
        <mxCell id="UKTYv-2w7XkKMf8pGrn_-12" value="" style="swimlane;startSize=0;fillColor=#fff2cc;strokeColor=#d6b656;" vertex="1" parent="UKTYv-2w7XkKMf8pGrn_-9">
          <mxGeometry x="62.5" y="170" width="85" height="40" as="geometry" />
        </mxCell>
        <mxCell id="UKTYv-2w7XkKMf8pGrn_-13" value="heapStr2" style="text;html=1;align=center;verticalAlign=middle;resizable=0;points=[];autosize=1;strokeColor=none;fillColor=none;" vertex="1" parent="UKTYv-2w7XkKMf8pGrn_-12">
          <mxGeometry x="10" y="5" width="70" height="30" as="geometry" />
        </mxCell>
        <mxCell id="UKTYv-2w7XkKMf8pGrn_-15" value="" style="swimlane;startSize=0;" vertex="1" parent="1">
          <mxGeometry x="30" y="20" width="810" height="50" as="geometry" />
        </mxCell>
        <mxCell id="UKTYv-2w7XkKMf8pGrn_-16" value="STACK" style="text;html=1;align=center;verticalAlign=middle;whiteSpace=wrap;rounded=0;fontStyle=1" vertex="1" parent="UKTYv-2w7XkKMf8pGrn_-15">
          <mxGeometry x="10" width="190" height="50" as="geometry" />
        </mxCell>
        <mxCell id="UKTYv-2w7XkKMf8pGrn_-17" value="HEAP" style="text;html=1;align=center;verticalAlign=middle;whiteSpace=wrap;rounded=0;fontStyle=1" vertex="1" parent="UKTYv-2w7XkKMf8pGrn_-15">
          <mxGeometry x="280" width="150" height="50" as="geometry" />
        </mxCell>
        <mxCell id="UKTYv-2w7XkKMf8pGrn_-18" value="METHOD AREA" style="text;html=1;align=center;verticalAlign=middle;whiteSpace=wrap;rounded=0;fontStyle=1" vertex="1" parent="UKTYv-2w7XkKMf8pGrn_-15">
          <mxGeometry x="590" width="150" height="50" as="geometry" />
        </mxCell>
      </root>
    </mxGraphModel>
  </diagram>
</mxfile>
